<svg xmlns="http://www.w3.org/2000/svg" viewBox="0 0 64 64" role="img" aria-label="Bolo icon">
	<defs>
		<linearGradient id="boloGrad" x1="0" y1="0" x2="1" y2="1">
			<stop offset="0%" stop-color="#0f766e" />
			<stop offset="100%" stop-color="#16a34a" />
		</linearGradient>
	</defs>
	<rect x="4" y="4" width="56" height="56" rx="16" fill="url(#boloGrad)" />
	<path d="M24 16h12c6.6 0 12 5.4 12 12c0 3.4-1.4 6.5-3.7 8.6c2.3 2.1 3.7 5.1 3.7 8.4c0 6.6-5.4 12-12 12H24V16zm10.5 16c2.5 0 4.5-2 4.5-4.5S37 23 34.5 23H31v9h3.5zm.8 16c2.6 0 4.7-2.1 4.7-4.7s-2.1-4.7-4.7-4.7H31v9.4h4.3z" fill="#f8fafc" />
</svg>